<svg xmlns="http://www.w3.org/2000/svg" xmlns:xlink="http://www.w3.org/1999/xlink" width="104" height="104" viewBox="0 0 104 104"><defs><style>.a{fill:#fff;stroke:#707070;}.b{clip-path:url(#a);}.c{fill:#525252;}</style><clipPath id="a"><rect class="a" width="104" height="104" transform="translate(33 49)"/></clipPath></defs><g class="b" transform="translate(-33 -49)"><path class="c" d="M26,36.4V46.8H78V36.4A10.41,10.41,0,0,1,88.4,26h5.2A15.6,15.6,0,0,0,78,10.4H26A15.6,15.6,0,0,0,10.4,26h5.2A10.41,10.41,0,0,1,26,36.4Zm67.6-5.2H88.4a5.194,5.194,0,0,0-5.2,5.2V52H20.8V36.4a5.194,5.194,0,0,0-5.2-5.2H10.4A10.366,10.366,0,0,0,5.2,50.554V70.2a2.608,2.608,0,0,0,2.6,2.6H18.2a2.608,2.608,0,0,0,2.6-2.6V67.6H83.2v2.6a2.608,2.608,0,0,0,2.6,2.6H96.2a2.608,2.608,0,0,0,2.6-2.6V50.554A10.366,10.366,0,0,0,93.6,31.2Z" transform="translate(33 59.4)"/></g></svg>