<svg xmlns="http://www.w3.org/2000/svg" xmlns:xlink="http://www.w3.org/1999/xlink" width="104" height="104" viewBox="0 0 104 104"><defs><style>.a,.c{fill:#525252;}.a{stroke:#707070;}.b{clip-path:url(#a);}</style><clipPath id="a"><rect class="a" width="104" height="104" transform="translate(33 49)"/></clipPath></defs><g class="b" transform="translate(-33 -49)"><path class="c" d="M36.4,41.6A20.8,20.8,0,1,0,15.6,20.8,20.8,20.8,0,0,0,36.4,41.6ZM52,52a10.25,10.25,0,0,1,1.316-4.956A22.239,22.239,0,0,0,50.96,46.8H48.246a28.288,28.288,0,0,1-23.692,0H21.84A21.844,21.844,0,0,0,0,68.635V75.4a7.8,7.8,0,0,0,7.8,7.8H53.446A10.325,10.325,0,0,1,52,78Zm46.8-5.2H93.6v-13a13,13,0,1,0-26,0v13H62.4A5.2,5.2,0,0,0,57.2,52V78a5.2,5.2,0,0,0,5.2,5.2H98.8A5.2,5.2,0,0,0,104,78V52A5.2,5.2,0,0,0,98.8,46.8ZM80.6,70.2A5.2,5.2,0,1,1,85.8,65,5.2,5.2,0,0,1,80.6,70.2Zm5.2-23.4H75.4v-13a5.2,5.2,0,1,1,10.4,0Z" transform="translate(33 59.4)"/></g></svg>