<svg xmlns="http://www.w3.org/2000/svg" xmlns:xlink="http://www.w3.org/1999/xlink" width="104" height="104" viewBox="0 0 104 104"><defs><style>.a,.c{fill:#525252;}.a{stroke:#707070;}.b{clip-path:url(#a);}</style><clipPath id="a"><rect class="a" width="104" height="104" transform="translate(33 49)"/></clipPath></defs><g class="b" transform="translate(-33 -49)"><path class="c" d="M68.25,32.5H9.75A9.75,9.75,0,0,0,0,42.25v45.5A9.75,9.75,0,0,0,9.75,97.5H13v3.25A3.249,3.249,0,0,0,16.25,104h6.5A3.249,3.249,0,0,0,26,100.75V97.5H52v3.25A3.249,3.249,0,0,0,55.25,104h6.5A3.249,3.249,0,0,0,65,100.75V97.5h3.25A9.75,9.75,0,0,0,78,87.75V42.25A9.75,9.75,0,0,0,68.25,32.5ZM65,76.375A1.625,1.625,0,0,1,63.375,78H14.625A1.625,1.625,0,0,1,13,76.375v-3.25A1.625,1.625,0,0,1,14.625,71.5h48.75A1.625,1.625,0,0,1,65,73.125Zm0-19.5A1.625,1.625,0,0,1,63.375,58.5H14.625A1.625,1.625,0,0,1,13,56.875v-3.25A1.625,1.625,0,0,1,14.625,52h48.75A1.625,1.625,0,0,1,65,53.625ZM29.25,9.75h19.5V26H58.5V9.75A9.75,9.75,0,0,0,48.75,0H29.25A9.75,9.75,0,0,0,19.5,9.75V26h9.75Z" transform="translate(46 49)"/></g></svg>