<svg xmlns="http://www.w3.org/2000/svg" xmlns:xlink="http://www.w3.org/1999/xlink" width="104" height="104" viewBox="0 0 104 104"><defs><style>.a,.c{fill:#525252;}.a{stroke:#707070;}.b{clip-path:url(#a);}</style><clipPath id="a"><rect class="a" width="104" height="104" transform="translate(33 49)"/></clipPath></defs><g class="b" transform="translate(-33 -49)"><path class="c" d="M103.173,25.168a75.556,75.556,0,0,0-102.346,0A2.583,2.583,0,0,0,.77,28.9l5.564,5.52a2.639,2.639,0,0,0,3.64.062,62.346,62.346,0,0,1,84.053,0,2.64,2.64,0,0,0,3.64-.062l5.564-5.52a2.584,2.584,0,0,0-.058-3.734ZM52,57.2A10.4,10.4,0,1,0,62.4,67.6,10.4,10.4,0,0,0,52,57.2ZM84.934,43.617a49.887,49.887,0,0,0-65.868,0,2.569,2.569,0,0,0-.093,3.762l5.6,5.523a2.653,2.653,0,0,0,3.583.13,36.6,36.6,0,0,1,47.692,0,2.651,2.651,0,0,0,3.583-.13l5.6-5.523A2.569,2.569,0,0,0,84.934,43.617Z" transform="translate(33 59.4)"/></g></svg>