<svg xmlns="http://www.w3.org/2000/svg" xmlns:xlink="http://www.w3.org/1999/xlink" width="104" height="104" viewBox="0 0 104 104"><defs><style>.a,.c{fill:#525252;}.a{stroke:#707070;}.b{clip-path:url(#a);}</style><clipPath id="a"><rect class="a" width="104" height="104" transform="translate(33 49)"/></clipPath></defs><g class="b" transform="translate(-33 -49)"><path class="c" d="M61.89,63.678A11.529,11.529,0,0,0,44,49.451a17.275,17.275,0,0,0-32.444,8.323c0,.361.09.686.108,1.029a17.288,17.288,0,0,0,5.669,33.635H60.663A14.4,14.4,0,0,0,61.89,63.678Zm40.171-9.8A27.152,27.152,0,0,1,83.574,3.593,1.631,1.631,0,0,0,83.068.578,35.818,35.818,0,0,0,76.731,0,34.658,34.658,0,0,0,42.085,34.664a33.833,33.833,0,0,0,.325,4.514,22.635,22.635,0,0,1,3.015,2.564,17.327,17.327,0,0,1,23.8,17.964,19.913,19.913,0,0,1,9.659,9.5,34.6,34.6,0,0,0,24.753-12.71A1.626,1.626,0,0,0,102.062,53.874Z" transform="translate(33 54.781)"/></g></svg>