<svg xmlns="http://www.w3.org/2000/svg" xmlns:xlink="http://www.w3.org/1999/xlink" width="104" height="104" viewBox="0 0 104 104"><defs><style>.a,.c{fill:#525252;}.a{stroke:#707070;}.b{clip-path:url(#a);}</style><clipPath id="a"><rect class="a" width="104" height="104" transform="translate(33 49)"/></clipPath></defs><g class="b" transform="translate(-33 -49)"><path class="c" d="M99.376,58.484H93.81a.919.919,0,0,0-.934.934v6.5H85.441V29.7a.919.919,0,0,0-.934-.934H78.94a.919.919,0,0,0-.934.934v6.5H70.571V29.7a.919.919,0,0,0-.934-.934H64.07a.919.919,0,0,0-.934.934v6.5H55.7V29.7c0-1.219-1.625-.934-2.377-.934V21.045a22.582,22.582,0,0,1,5.221-.691c2.214,0,4.246.874,6.379.874.934,0,5.627-.223,5.627-1.625V7.415a.919.919,0,0,0-.934-.934c-1.036,0-3.067.874-4.875.874-1.97,0-4.246-.874-6.622-.874a21.244,21.244,0,0,0-4.814.589v-1a3.292,3.292,0,0,0,1.849-2.9c0-4.2-6.379-4.225-6.379,0a3.292,3.292,0,0,0,1.849,2.9V28.765c-.752,0-2.377-.284-2.377.934v6.5H40.811V29.7a.919.919,0,0,0-.934-.934H34.31a.919.919,0,0,0-.934.934v6.5H26V29.7a.919.919,0,0,0-.934-.934H19.5a.919.919,0,0,0-.934.934v36.22H11.132v-6.5a.919.919,0,0,0-.934-.934H4.632a.919.919,0,0,0-.934.934v44.589H40.851v-19.5c0-14.748,22.284-14.748,22.284,0v19.5H100.29V59.418a.891.891,0,0,0-.914-.934ZM40.851,57.57a.919.919,0,0,1-.934.934H34.351a.919.919,0,0,1-.934-.934v-13a.919.919,0,0,1,.934-.934h5.566a.919.919,0,0,1,.934.934Zm29.74,0a.919.919,0,0,1-.934.934H64.091a.919.919,0,0,1-.934-.934v-13a.919.919,0,0,1,.934-.934h5.566a.919.919,0,0,1,.934.934Z" transform="translate(33.006 48.992)"/></g></svg>