<svg xmlns="http://www.w3.org/2000/svg" xmlns:xlink="http://www.w3.org/1999/xlink" width="104" height="104" viewBox="0 0 104 104"><defs><style>.a{fill:#fff;stroke:#707070;}.b{clip-path:url(#a);}.c{fill:#525252;}</style><clipPath id="a"><rect class="a" width="104" height="104" transform="translate(33 49)"/></clipPath></defs><g class="b" transform="translate(-33 -49)"><path class="c" d="M50.618,26.767,17.332,54.182V83.771a2.889,2.889,0,0,0,2.889,2.889l20.231-.052a2.889,2.889,0,0,0,2.874-2.889V66.439a2.889,2.889,0,0,1,2.889-2.889H57.77a2.889,2.889,0,0,1,2.889,2.889V83.706a2.889,2.889,0,0,0,2.889,2.9l20.224.056a2.889,2.889,0,0,0,2.889-2.889V54.162l-33.279-27.4a2.2,2.2,0,0,0-2.762,0ZM103.2,45.4,88.1,32.96V7.953a2.166,2.166,0,0,0-2.166-2.166H75.827a2.167,2.167,0,0,0-2.167,2.166V21.062L57.5,7.763a8.666,8.666,0,0,0-11.013,0L.784,45.4a2.167,2.167,0,0,0-.289,3.051l4.6,5.6a2.167,2.167,0,0,0,3.053.294L50.618,19.365a2.2,2.2,0,0,1,2.762,0L95.85,54.343a2.167,2.167,0,0,0,3.051-.289l4.6-5.6A2.167,2.167,0,0,0,103.2,45.4Z" transform="translate(33.003 54.777)"/></g></svg>