<svg xmlns="http://www.w3.org/2000/svg" xmlns:xlink="http://www.w3.org/1999/xlink" width="104" height="104" viewBox="0 0 104 104"><defs><style>.a{fill:#fff;stroke:#707070;}.b{clip-path:url(#a);}.c{fill:#525252;}</style><clipPath id="a"><rect class="a" width="104" height="104" transform="translate(33 49)"/></clipPath></defs><g class="b" transform="translate(-33 -49)"><path class="c" d="M93.681,26H16.25a3.25,3.25,0,0,1,0-6.5h78a3.249,3.249,0,0,0,3.25-3.25A9.75,9.75,0,0,0,87.75,6.5H13a13,13,0,0,0-13,13v65a13,13,0,0,0,13,13H93.681C99.373,97.5,104,93.127,104,87.75v-52C104,30.373,99.373,26,93.681,26ZM84.5,68.25a6.5,6.5,0,1,1,6.5-6.5A6.5,6.5,0,0,1,84.5,68.25Z" transform="translate(33 49)"/></g></svg>