<svg xmlns="http://www.w3.org/2000/svg" xmlns:xlink="http://www.w3.org/1999/xlink" width="104" height="104" viewBox="0 0 104 104"><defs><style>.a,.c{fill:#525252;}.a{stroke:#707070;}.b{clip-path:url(#a);}</style><clipPath id="a"><rect class="a" width="104" height="104" transform="translate(33 49)"/></clipPath></defs><g class="b" transform="translate(-33 -49)"><g transform="translate(33 49)"><path class="c" d="M8,0V104H96V0ZM91.2,99.2H12.8V23.681H91.2V99.2Zm0-78.719H12.8V4.8H91.2V20.481Z"/><path class="c" d="M52,83.442a26,26,0,1,0-26-26A26,26,0,0,0,52,83.442ZM35.878,41.319A22.8,22.8,0,1,1,29.2,57.442,22.722,22.722,0,0,1,35.878,41.319Z"/><path class="c" d="M52,76A18.556,18.556,0,1,0,33.444,57.441,18.556,18.556,0,0,0,52,76ZM41.141,46.583a15.356,15.356,0,1,1-4.5,10.858A15.294,15.294,0,0,1,41.141,46.583Z"/><circle class="c" cx="2.8" cy="2.8" r="2.8" transform="translate(63 9)"/><circle class="c" cx="2.8" cy="2.8" r="2.8" transform="translate(75.8 9)"/></g></g></svg>