<svg xmlns="http://www.w3.org/2000/svg" xmlns:xlink="http://www.w3.org/1999/xlink" width="104" height="104" viewBox="0 0 104 104"><defs><style>.a,.c{fill:#525252;}.a{stroke:#707070;}.b{clip-path:url(#a);}</style><clipPath id="a"><rect class="a" width="104" height="104" transform="translate(33 49)"/></clipPath></defs><g class="b" transform="translate(-33 -49)"><path class="c" d="M105.677,53.579A52,52,0,0,1,21.043,94.164a5.029,5.029,0,0,1-.386-7.466l2.362-2.362a5.041,5.041,0,0,1,6.687-.416,38.583,38.583,0,1,0-2.463-58.353L37.886,36.208a3.355,3.355,0,0,1-2.372,5.727H5.032a3.355,3.355,0,0,1-3.355-3.355V8.1A3.355,3.355,0,0,1,7.4,5.727L17.757,16.079a52,52,0,0,1,87.921,37.5ZM67.744,70.1,69.8,67.45a5.032,5.032,0,0,0-.883-7.062l-8.534-6.638V31.871a5.032,5.032,0,0,0-5.032-5.032H52a5.032,5.032,0,0,0-5.032,5.032V60.314L60.682,70.981A5.032,5.032,0,0,0,67.744,70.1Z" transform="translate(31.323 47.323)"/></g></svg>