<svg xmlns="http://www.w3.org/2000/svg" xmlns:xlink="http://www.w3.org/1999/xlink" width="104" height="104" viewBox="0 0 104 104"><defs><style>.a,.c{fill:#525252;}.a{stroke:#707070;}.b{clip-path:url(#a);}</style><clipPath id="a"><rect class="a" width="104" height="104" transform="translate(33 49)"/></clipPath></defs><g class="b" transform="translate(-33 -49)"><path class="c" d="M61.75,65A3.25,3.25,0,1,0,65,68.25,3.25,3.25,0,0,0,61.75,65Zm6.5-19.5a3.25,3.25,0,1,0,3.25,3.25A3.25,3.25,0,0,0,68.25,45.5Zm6.5,13a3.25,3.25,0,1,0-3.25-3.25A3.25,3.25,0,0,0,74.75,58.5ZM68.25,65A3.25,3.25,0,1,0,65,61.75,3.25,3.25,0,0,0,68.25,65Zm-6.5-13A3.25,3.25,0,1,0,65,55.25,3.25,3.25,0,0,0,61.75,52Zm26-6.5a3.25,3.25,0,1,0-3.25-3.25A3.25,3.25,0,0,0,87.75,45.5ZM78,48.75a3.25,3.25,0,1,0,3.25-3.25A3.25,3.25,0,0,0,78,48.75ZM74.75,39A3.25,3.25,0,1,0,78,42.25,3.25,3.25,0,0,0,74.75,39Zm19.5,6.5a3.25,3.25,0,1,0,3.25,3.25A3.25,3.25,0,0,0,94.25,45.5Zm6.5-6.5A3.25,3.25,0,1,0,104,42.25,3.25,3.25,0,0,0,100.75,39Zm-13,13A3.25,3.25,0,1,0,91,55.25,3.25,3.25,0,0,0,87.75,52Zm-6.5,6.5a3.25,3.25,0,1,0,3.25,3.25A3.25,3.25,0,0,0,81.25,58.5Zm-13,13a3.25,3.25,0,1,0,3.25,3.25A3.25,3.25,0,0,0,68.25,71.5ZM61.75,78A3.25,3.25,0,1,0,65,81.25,3.25,3.25,0,0,0,61.75,78Zm13-13A3.25,3.25,0,1,0,78,68.25,3.25,3.25,0,0,0,74.75,65Zm4.4-44.352-2.3-2.3a3.25,3.25,0,0,0-4.6,0L71.1,19.5a22.329,22.329,0,0,0-26.6-3.687l-2.031-2.031A24.724,24.724,0,0,0,25.074,6.5C11.271,6.4,0,18.872,0,32.673V94.25A3.25,3.25,0,0,0,3.25,97.5h6.5A3.25,3.25,0,0,0,13,94.25V32.175c0-6.124,4.266-11.822,10.359-12.58A11.858,11.858,0,0,1,33.3,22.982l2.031,2.031A22.274,22.274,0,0,0,32.5,35.75,22.591,22.591,0,0,0,39,51.6L37.85,52.756a3.25,3.25,0,0,0,0,4.595l2.3,2.3a3.25,3.25,0,0,0,4.6,0l34.405-34.4A3.25,3.25,0,0,0,79.148,20.648Z" transform="translate(33 49)"/></g></svg>