<svg xmlns="http://www.w3.org/2000/svg" xmlns:xlink="http://www.w3.org/1999/xlink" width="104" height="104" viewBox="0 0 104 104"><defs><style>.a{fill:#fff;stroke:#707070;}.b{clip-path:url(#a);}.c{fill:#525252;}</style><clipPath id="a"><rect class="a" width="104" height="104" transform="translate(33 49)"/></clipPath></defs><g class="b" transform="translate(-33 -49)"><path class="c" d="M99.125,26H97.5V16.25C97.5,7.15,77.35,0,52,0S6.5,7.15,6.5,16.25V26H4.875A4.875,4.875,0,0,0,0,30.875v16.25A4.876,4.876,0,0,0,4.875,52H6.5V84.5A6.5,6.5,0,0,0,13,91v6.5a6.5,6.5,0,0,0,6.5,6.5H26a6.5,6.5,0,0,0,6.5-6.5V91h39v6.5A6.5,6.5,0,0,0,78,104h6.5A6.5,6.5,0,0,0,91,97.5V91h1.3a5.127,5.127,0,0,0,5.2-5.2V52h1.625A4.876,4.876,0,0,0,104,47.125V30.875A4.875,4.875,0,0,0,99.125,26ZM22.75,81.25a6.5,6.5,0,1,1,6.5-6.5A6.5,6.5,0,0,1,22.75,81.25ZM26,58.5A6.5,6.5,0,0,1,19.5,52V26A6.5,6.5,0,0,1,26,19.5H78A6.5,6.5,0,0,1,84.5,26V52A6.5,6.5,0,0,1,78,58.5ZM81.25,81.25a6.5,6.5,0,1,1,6.5-6.5A6.5,6.5,0,0,1,81.25,81.25Z" transform="translate(33 49)"/></g></svg>