<svg xmlns="http://www.w3.org/2000/svg" xmlns:xlink="http://www.w3.org/1999/xlink" width="104" height="104" viewBox="0 0 104 104"><defs><style>.a,.c{fill:#525252;}.a{stroke:#707070;}.b{clip-path:url(#a);}</style><clipPath id="a"><rect class="a" width="104" height="104" transform="translate(33 49)"/></clipPath></defs><g class="b" transform="translate(-33 -49)"><path class="c" d="M65.723,10.4A121.343,121.343,0,0,0,54.3,22.581,157.6,157.6,0,0,0,34.125,0C14.166,18.519,0,42.648,0,57.2,0,83.048,20.371,104,45.5,104S91,83.048,91,57.2c0-10.82-10.558-33.138-25.277-46.8ZM61.768,79.595A27.3,27.3,0,0,1,46.081,84.5C31.425,84.5,19.5,74.8,19.5,59.059c0-7.843,4.938-14.753,14.785-26.559C35.693,34.121,54.36,57.96,54.36,57.96L66.27,44.375c.841,1.391,1.607,2.752,2.289,4.056,5.555,10.6,3.211,24.166-6.79,31.163Z" transform="translate(39.5 49)"/></g></svg>