<svg xmlns="http://www.w3.org/2000/svg" xmlns:xlink="http://www.w3.org/1999/xlink" width="104" height="104" viewBox="0 0 104 104"><defs><style>.a,.c{fill:#525252;}.a{stroke:#707070;}.b{clip-path:url(#a);}</style><clipPath id="a"><rect class="a" width="104" height="104" transform="translate(33 49)"/></clipPath></defs><g class="b" transform="translate(-33 -49)"><path class="c" d="M55.252,19.5A9.75,9.75,0,1,0,45.5,9.75,9.75,9.75,0,0,0,55.252,19.5ZM23.094,64.489,20.088,71.5H6.5a6.5,6.5,0,0,0,0,13H22.233a9.73,9.73,0,0,0,8.96-5.909l1.786-4.168-2.167-1.28a19.344,19.344,0,0,1-7.717-8.655ZM78,45.5H69.059L63.765,34.683a19.491,19.491,0,0,0-12.55-10.348L36.777,20.041a19.418,19.418,0,0,0-16.421,3.482L12.3,29.7a6.5,6.5,0,1,0,7.91,10.315l8.062-6.177A6.326,6.326,0,0,1,33.4,32.591l2.986.888L28.78,51.23a13.035,13.035,0,0,0,5.342,16.314L51.385,77.735,45.8,95.556A6.5,6.5,0,1,0,58.21,99.44l6.427-20.529a9.791,9.791,0,0,0-4.4-11.048L47.8,60.521l6.36-15.9,4.118,8.416A9.811,9.811,0,0,0,67.036,58.5H78a6.5,6.5,0,1,0,0-13Z" transform="translate(42.748 49)"/></g></svg>